<svg width="37" height="33" viewBox="0 0 37 33" fill="none" xmlns="http://www.w3.org/2000/svg">
<path d="M1 10.5833C1 8.46624 2.71624 6.75 4.83333 6.75H6.61513C7.89682 6.75 9.0937 6.10945 9.80465 5.04302L11.362 2.70698C12.073 1.64055 13.2699 1 14.5515 1H21.9485C23.2301 1 24.427 1.64055 25.138 2.70698L26.6953 5.04302C27.4063 6.10945 28.6032 6.75 29.8849 6.75H31.6667C33.7838 6.75 35.5 8.46624 35.5 10.5833V27.8333C35.5 29.9504 33.7838 31.6667 31.6667 31.6667H4.83333C2.71624 31.6667 1 29.9504 1 27.8333V10.5833Z" stroke="#8D292E" stroke-width="2" stroke-linecap="round" stroke-linejoin="round"/>
<path d="M24 18.25C24 21.4256 21.4256 24 18.25 24C15.0744 24 12.5 21.4256 12.5 18.25C12.5 15.0744 15.0744 12.5 18.25 12.5C21.4256 12.5 24 15.0744 24 18.25Z" stroke="#8D292E" stroke-width="2" stroke-linecap="round" stroke-linejoin="round"/>
</svg>
