<svg width="16" height="16" viewBox="0 0 16 16" fill="none" xmlns="http://www.w3.org/2000/svg">
<path d="M12.6667 0H3.33333C2.44928 0 1.60143 0.351189 0.976311 0.976311C0.351189 1.60143 0 2.44928 0 3.33333V12.6667C0 13.5507 0.351189 14.3986 0.976311 15.0237C1.60143 15.6488 2.44928 16 3.33333 16H12.6667C13.5507 16 14.3986 15.6488 15.0237 15.0237C15.6488 14.3986 16 13.5507 16 12.6667V3.33333C16 2.44928 15.6488 1.60143 15.0237 0.976311C14.3986 0.351189 13.5507 0 12.6667 0V0ZM13.14 5.54L7.80667 10.8733C7.32686 11.3513 6.67723 11.6196 6 11.6196C5.32277 11.6196 4.67314 11.3513 4.19333 10.8733L2.86 9.54C2.73583 9.41509 2.66614 9.24612 2.66614 9.07C2.66614 8.89388 2.73583 8.72491 2.86 8.6C2.92198 8.53751 2.99571 8.48792 3.07695 8.45407C3.15819 8.42023 3.24533 8.4028 3.33333 8.4028C3.42134 8.4028 3.50848 8.42023 3.58972 8.45407C3.67096 8.48792 3.74469 8.53751 3.80667 8.6L5.14 9.93333C5.36857 10.1605 5.67774 10.288 6 10.288C6.32226 10.288 6.63143 10.1605 6.86 9.93333L12.1933 4.6C12.2553 4.53751 12.329 4.48792 12.4103 4.45407C12.4915 4.42023 12.5787 4.4028 12.6667 4.4028C12.7547 4.4028 12.8418 4.42023 12.9231 4.45407C13.0043 4.48792 13.078 4.53751 13.14 4.6C13.2035 4.66209 13.254 4.73624 13.2884 4.81809C13.3228 4.89995 13.3406 4.98786 13.3406 5.07667C13.3406 5.16547 13.3228 5.25339 13.2884 5.33524C13.254 5.4171 13.2035 5.49125 13.14 5.55333V5.54Z" fill="#BF1910"/>
</svg>
