<svg width="24" height="20" viewBox="0 0 24 20" fill="none" xmlns="http://www.w3.org/2000/svg">
<path fill-rule="evenodd" clip-rule="evenodd" d="M2.70711 1.7071C2.31658 2.09763 2.2668 2.68101 2.59591 3.01013L18.3746 18.7889C18.7038 19.118 19.2871 19.0682 19.6777 18.6777C20.0682 18.2871 20.118 17.7038 19.7889 17.3746L4.01013 1.59591C3.68101 1.2668 3.09763 1.31658 2.70711 1.7071Z" fill="#FDE498"/>
<path fill-rule="evenodd" clip-rule="evenodd" d="M2.29289 18.2929C2.68342 18.6834 3.2668 18.7332 3.59591 18.4041L19.3746 2.62535C19.7038 2.29624 19.654 1.71286 19.2635 1.32233C18.8729 0.931808 18.2895 0.882026 17.9604 1.21114L2.1817 16.9899C1.85259 17.319 1.90237 17.9024 2.29289 18.2929Z" fill="#FDE498"/>
</svg>
