<?xml version="1.0" encoding="UTF-8"?>
<svg width="32px" height="32px" viewBox="0 0 32 32" version="1.1" xmlns="http://www.w3.org/2000/svg" xmlns:xlink="http://www.w3.org/1999/xlink">
    <!-- Generator: Sketch 53.2 (72643) - https://sketchapp.com -->
    <title>Shape</title>
    <desc>Created with Sketch.</desc>
    <g id="Page-1" stroke="none" stroke-width="1" fill="none" fill-rule="evenodd">
        <path d="M16,14.6689755 L19.3275613,11.3414141 C19.6951136,10.9738619 20.2910336,10.9738619 20.6585859,11.3414141 C21.0261381,11.7089664 21.0261381,12.3048864 20.6585859,12.6724387 L17.3310245,16 L20.6585859,19.3275613 C21.0261381,19.6951136 21.0261381,20.2910336 20.6585859,20.6585859 C20.2910336,21.0261381 19.6951136,21.0261381 19.3275613,20.6585859 L16,17.3310245 L12.6724387,20.6585859 C12.3048864,21.0261381 11.7089664,21.0261381 11.3414141,20.6585859 C10.9738619,20.2910336 10.9738619,19.6951136 11.3414141,19.3275613 L14.6689755,16 L11.3414141,12.6724387 C10.9738619,12.3048864 10.9738619,11.7089664 11.3414141,11.3414141 C11.7089664,10.9738619 12.3048864,10.9738619 12.6724387,11.3414141 L16,14.6689755 Z M4.6862915,27.3137085 C-1.56209717,21.0653198 -1.56209717,10.9346802 4.6862915,4.6862915 C10.9346802,-1.56209717 21.0653198,-1.56209717 27.3137085,4.6862915 C33.5620972,10.9346802 33.5620972,21.0653198 27.3137085,27.3137085 C21.0653198,33.5620972 10.9346802,33.5620972 4.6862915,27.3137085 Z M6.01731603,25.982684 C11.5306001,31.4959681 20.4693999,31.4959681 25.982684,25.982684 C31.4959681,20.4693999 31.4959681,11.5306001 25.982684,6.01731603 C20.4693999,0.504031912 11.5306001,0.504031912 6.01731603,6.01731603 C0.504031912,11.5306001 0.504031912,20.4693999 6.01731603,25.982684 Z" id="Shape" fill="#FFFFFF" fill-rule="nonzero"></path>
    </g>
</svg>