<svg width="24" height="14" viewBox="0 0 24 14" fill="none" xmlns="http://www.w3.org/2000/svg">
<path fill-rule="evenodd" clip-rule="evenodd" d="M-2.25581e-06 13C-2.25581e-06 13.5523 0.377311 14 0.84275 14H23.1572C23.6227 14 24 13.5523 24 13C24 12.4477 23.6227 12 23.1572 12H0.84275C0.377311 12 -2.25581e-06 12.4477 -2.25581e-06 13Z" fill="#FDE498"/>
<path fill-rule="evenodd" clip-rule="evenodd" d="M-2.25581e-06 7C-2.25581e-06 7.55228 0.377311 8 0.84275 8H23.1572C23.6227 8 24 7.55228 24 7C24 6.44772 23.6227 6 23.1572 6H0.84275C0.377311 6 -2.25581e-06 6.44772 -2.25581e-06 7Z" fill="#FDE498"/>
<path fill-rule="evenodd" clip-rule="evenodd" d="M-2.25581e-06 1C-2.25581e-06 1.55228 0.377311 2 0.84275 2H23.1572C23.6227 2 24 1.55228 24 1C24 0.447715 23.6227 0 23.1572 0H0.84275C0.377311 0 -2.25581e-06 0.447715 -2.25581e-06 1Z" fill="#FDE498"/>
</svg>
