<svg width="46" height="46" viewBox="0 0 46 46" fill="none" xmlns="http://www.w3.org/2000/svg">
<path d="M36.4167 5.75H9.58333C7.46624 5.75 5.75 7.46624 5.75 9.58333V36.4167C5.75 38.5338 7.46624 40.25 9.58333 40.25H36.4167C38.5338 40.25 40.25 38.5338 40.25 36.4167V9.58333C40.25 7.46624 38.5338 5.75 36.4167 5.75Z" stroke="#8D292E" stroke-width="2" stroke-linecap="round" stroke-linejoin="round"/>
<path d="M40.2499 28.75L30.6666 19.1666L9.58325 40.25" stroke="#8D292E" stroke-width="2" stroke-linecap="round" stroke-linejoin="round"/>
<path d="M16.2917 19.1666C17.8796 19.1666 19.1667 17.8794 19.1667 16.2916C19.1667 14.7038 17.8796 13.4166 16.2917 13.4166C14.7039 13.4166 13.4167 14.7038 13.4167 16.2916C13.4167 17.8794 14.7039 19.1666 16.2917 19.1666Z" stroke="#8D292E" stroke-width="2" stroke-linecap="round" stroke-linejoin="round"/>
</svg>
